<svg width="32" height="32" viewBox="0 0 32 32" fill="none" xmlns="http://www.w3.org/2000/svg">
<path d="M2.66666 14.3333C2.66666 17.8696 4.07142 21.2609 6.57191 23.7614C9.07239 26.2619 12.4638 27.6667 16 27.6667C19.5362 27.6667 22.9276 26.2619 25.4281 23.7614C27.9286 21.2609 29.3333 17.8696 29.3333 14.3333C29.3333 10.7971 27.9286 7.40573 25.4281 4.90524C22.9276 2.40476 19.5362 1 16 1C12.4638 1 9.07239 2.40476 6.57191 4.90524C4.07142 7.40573 2.66666 10.7971 2.66666 14.3333Z" fill="#FFE500"/>
<path d="M16 1C13.3629 1 10.7851 1.78199 8.5924 3.24707C6.39974 4.71216 4.69077 6.79454 3.68161 9.23089C2.67244 11.6672 2.40839 14.3481 2.92286 16.9345C3.43733 19.521 4.70721 21.8967 6.57191 23.7614C8.43661 25.6261 10.8124 26.896 13.3988 27.4105C15.9852 27.9249 18.6661 27.6609 21.1024 26.6517C23.5388 25.6426 25.6212 23.9336 27.0863 21.7409C28.5513 19.5483 29.3333 16.9704 29.3333 14.3333C29.3333 10.7971 27.9286 7.40573 25.4281 4.90524C22.9276 2.40476 19.5362 1 16 1ZM16 25.6667C13.5937 25.6667 11.2414 24.9531 9.24056 23.6162C7.23976 22.2793 5.68033 20.3791 4.75947 18.156C3.8386 15.9328 3.59766 13.4865 4.06711 11.1264C4.53657 8.7663 5.69533 6.59841 7.39687 4.89687C9.09841 3.19533 11.2663 2.03657 13.6264 1.56711C15.9865 1.09766 18.4328 1.3386 20.656 2.25947C22.8792 3.18033 24.7793 4.73976 26.1162 6.74056C27.4531 8.74136 28.1667 11.0937 28.1667 13.5C28.1667 16.7268 26.8848 19.8214 24.6031 22.1031C22.3214 24.3848 19.2268 25.6667 16 25.6667Z" fill="#EBCB00"/>
<path d="M12 3.66669C12 3.9319 12.4214 4.18626 13.1716 4.37379C13.9217 4.56133 14.9391 4.66669 16 4.66669C17.0609 4.66669 18.0783 4.56133 18.8284 4.37379C19.5786 4.18626 20 3.9319 20 3.66669C20 3.40147 19.5786 3.14712 18.8284 2.95958C18.0783 2.77204 17.0609 2.66669 16 2.66669C14.9391 2.66669 13.9217 2.77204 13.1716 2.95958C12.4214 3.14712 12 3.40147 12 3.66669Z" fill="#FFF48C"/>
<path opacity="0.15" d="M5.33333 30.3333C5.33333 30.5985 6.45714 30.8529 8.45753 31.0404C10.4579 31.228 13.171 31.3333 16 31.3333C18.829 31.3333 21.5421 31.228 23.5425 31.0404C25.5429 30.8529 26.6667 30.5985 26.6667 30.3333C26.6667 30.0681 25.5429 29.8137 23.5425 29.6262C21.5421 29.4387 18.829 29.3333 16 29.3333C13.171 29.3333 10.4579 29.4387 8.45753 29.6262C6.45714 29.8137 5.33333 30.0681 5.33333 30.3333Z" fill="#45413C"/>
<path d="M2.66666 14.3333C2.66666 17.8696 4.07142 21.2609 6.57191 23.7614C9.07239 26.2619 12.4638 27.6667 16 27.6667C19.5362 27.6667 22.9276 26.2619 25.4281 23.7614C27.9286 21.2609 29.3333 17.8696 29.3333 14.3333C29.3333 10.7971 27.9286 7.40573 25.4281 4.90524C22.9276 2.40476 19.5362 1 16 1C12.4638 1 9.07239 2.40476 6.57191 4.90524C4.07142 7.40573 2.66666 10.7971 2.66666 14.3333V14.3333Z" stroke="#45413C" stroke-width="0.5" stroke-linecap="round" stroke-linejoin="round"/>
<path d="M25.6667 17.6667C25.6667 18.22 24.92 18.6667 24 18.6667C23.08 18.6667 22.3333 18.22 22.3333 17.6667C22.3333 17.1134 23.08 16.6667 24 16.6667C24.92 16.6667 25.6667 17.1134 25.6667 17.6667Z" fill="#FFAA54"/>
<path d="M6.33333 17.6667C6.33333 18.22 7.08 18.6667 8 18.6667C8.92 18.6667 9.66667 18.22 9.66667 17.6667C9.66667 17.1134 8.92 16.6667 8 16.6667C7.08 16.6667 6.33333 17.1134 6.33333 17.6667Z" fill="#FFAA54"/>
<path d="M11.96 19.6667C11.8699 19.6672 11.781 19.6871 11.6993 19.7251C11.6177 19.763 11.5451 19.8182 11.4867 19.8867C11.429 19.9567 11.3863 20.0378 11.3611 20.1249C11.3359 20.212 11.3287 20.3034 11.34 20.3934C11.5184 21.5026 12.0861 22.5119 12.9413 23.2405C13.7965 23.9691 14.8832 24.3693 16.0067 24.3693C17.1301 24.3693 18.2169 23.9691 19.072 23.2405C19.9272 22.5119 20.4949 21.5026 20.6733 20.3934C20.6846 20.3034 20.6775 20.212 20.6522 20.1249C20.627 20.0378 20.5843 19.9567 20.5267 19.8867C20.4682 19.8182 20.3957 19.763 20.314 19.7251C20.2323 19.6871 20.1434 19.6672 20.0533 19.6667H11.96Z" fill="#FFB0CA" stroke="#45413C" stroke-width="0.5" stroke-linecap="round" stroke-linejoin="round"/>
<path d="M19.7133 22.56C18.5702 21.9571 17.292 21.6564 16 21.6866C14.708 21.6564 13.4298 21.9571 12.2867 22.56C12.7341 23.1139 13.2998 23.5608 13.9423 23.8677C14.5849 24.1747 15.2879 24.334 16 24.334C16.7121 24.334 17.4151 24.1747 18.0577 23.8677C18.7002 23.5608 19.2659 23.1139 19.7133 22.56Z" fill="#FF87AF" stroke="#45413C" stroke-width="0.5" stroke-linecap="round" stroke-linejoin="round"/>
<path d="M6.66667 15.1667C6.66667 14.8572 6.78958 14.5605 7.00837 14.3417C7.22717 14.1229 7.52391 14 7.83333 14C8.14275 14 8.4395 14.1229 8.65829 14.3417C8.87708 14.5605 9 14.8572 9 15.1667" stroke="#45413C" stroke-width="0.5" stroke-linecap="round" stroke-linejoin="round"/>
<path d="M23 15.1667C23 14.8572 23.1229 14.5605 23.3417 14.3417C23.5605 14.1229 23.8572 14 24.1667 14C24.4761 14 24.7728 14.1229 24.9916 14.3417C25.2104 14.5605 25.3333 14.8572 25.3333 15.1667" stroke="#45413C" stroke-width="0.5" stroke-linecap="round" stroke-linejoin="round"/>
</svg>
