<svg width="32" height="32" viewBox="0 0 32 32" fill="none" xmlns="http://www.w3.org/2000/svg">
<path opacity="0.15" d="M5.33333 30.3333C5.33333 30.5985 6.45713 30.8529 8.45752 31.0404C10.4579 31.228 13.171 31.3333 16 31.3333C18.829 31.3333 21.5421 31.228 23.5425 31.0404C25.5429 30.8529 26.6667 30.5985 26.6667 30.3333C26.6667 30.0681 25.5429 29.8137 23.5425 29.6262C21.5421 29.4387 18.829 29.3333 16 29.3333C13.171 29.3333 10.4579 29.4387 8.45752 29.6262C6.45713 29.8137 5.33333 30.0681 5.33333 30.3333Z" fill="#45413C"/>
<path d="M2.66666 14.3333C2.66666 17.8696 4.07141 21.2609 6.5719 23.7614C9.07238 26.2619 12.4638 27.6667 16 27.6667C19.5362 27.6667 22.9276 26.2619 25.4281 23.7614C27.9286 21.2609 29.3333 17.8696 29.3333 14.3333C29.3333 10.7971 27.9286 7.40573 25.4281 4.90524C22.9276 2.40476 19.5362 1 16 1C12.4638 1 9.07238 2.40476 6.5719 4.90524C4.07141 7.40573 2.66666 10.7971 2.66666 14.3333Z" fill="#FFE500"/>
<path d="M16 1C13.3629 1 10.785 1.78199 8.59239 3.24707C6.39974 4.71216 4.69077 6.79454 3.6816 9.23089C2.67243 11.6672 2.40839 14.3481 2.92286 16.9345C3.43733 19.521 4.70721 21.8967 6.57191 23.7614C8.43661 25.6261 10.8124 26.896 13.3988 27.4105C15.9852 27.9249 18.6661 27.6609 21.1024 26.6517C23.5388 25.6426 25.6212 23.9336 27.0863 21.7409C28.5513 19.5483 29.3333 16.9704 29.3333 14.3333C29.3333 10.7971 27.9286 7.40573 25.4281 4.90524C22.9276 2.40476 19.5362 1 16 1ZM16 25.6667C13.5937 25.6667 11.2414 24.9531 9.24056 23.6162C7.23976 22.2793 5.68033 20.3791 4.75946 18.156C3.8386 15.9328 3.59765 13.4865 4.06711 11.1264C4.53656 8.7663 5.69532 6.59841 7.39686 4.89687C9.0984 3.19533 11.2663 2.03657 13.6264 1.56711C15.9865 1.09766 18.4328 1.3386 20.656 2.25947C22.8791 3.18033 24.7793 4.73976 26.1162 6.74056C27.4531 8.74136 28.1667 11.0937 28.1667 13.5C28.1667 16.7268 26.8848 19.8214 24.6031 22.1031C22.3214 24.3848 19.2268 25.6667 16 25.6667Z" fill="#EBCB00"/>
<path d="M12 3.66669C12 3.9319 12.4214 4.18626 13.1716 4.37379C13.9217 4.56133 14.9391 4.66669 16 4.66669C17.0609 4.66669 18.0783 4.56133 18.8284 4.37379C19.5786 4.18626 20 3.9319 20 3.66669C20 3.40147 19.5786 3.14712 18.8284 2.95958C18.0783 2.77204 17.0609 2.66669 16 2.66669C14.9391 2.66669 13.9217 2.77204 13.1716 2.95958C12.4214 3.14712 12 3.40147 12 3.66669Z" fill="#FFF48C"/>
<path d="M2.66666 14.3333C2.66666 17.8696 4.07141 21.2609 6.5719 23.7614C9.07238 26.2619 12.4638 27.6667 16 27.6667C19.5362 27.6667 22.9276 26.2619 25.4281 23.7614C27.9286 21.2609 29.3333 17.8696 29.3333 14.3333C29.3333 10.7971 27.9286 7.40573 25.4281 4.90524C22.9276 2.40476 19.5362 1 16 1C12.4638 1 9.07238 2.40476 6.5719 4.90524C4.07141 7.40573 2.66666 10.7971 2.66666 14.3333V14.3333Z" stroke="#45413C" stroke-width="0.5" stroke-linecap="round" stroke-linejoin="round"/>
<path d="M25.6667 17.6667C25.6667 18.22 24.92 18.6667 24 18.6667C23.08 18.6667 22.3333 18.22 22.3333 17.6667C22.3333 17.1134 23.08 16.6667 24 16.6667C24.92 16.6667 25.6667 17.1134 25.6667 17.6667Z" fill="#FFAA54"/>
<path d="M6.33333 17.6667C6.33333 18.22 7.07999 18.6667 7.99999 18.6667C8.91999 18.6667 9.66666 18.22 9.66666 17.6667C9.66666 17.1134 8.91999 16.6667 7.99999 16.6667C7.07999 16.6667 6.33333 17.1134 6.33333 17.6667Z" fill="#FFAA54"/>
<path d="M9.66666 13.6667C9.66666 13.7985 9.62756 13.9274 9.55431 14.037C9.48105 14.1467 9.37694 14.2321 9.25512 14.2826C9.1333 14.333 8.99926 14.3462 8.86994 14.3205C8.74061 14.2948 8.62183 14.2313 8.52859 14.1381C8.43536 14.0448 8.37186 13.926 8.34614 13.7967C8.32041 13.6674 8.33362 13.5334 8.38408 13.4115C8.43453 13.2897 8.51998 13.1856 8.62961 13.1124C8.73925 13.0391 8.86814 13 9 13C9.17681 13 9.34638 13.0702 9.4714 13.1953C9.59642 13.3203 9.66666 13.4899 9.66666 13.6667Z" fill="#45413C" stroke="#45413C" stroke-width="0.5" stroke-linecap="round" stroke-linejoin="round"/>
<path d="M22.3333 13.6667C22.3333 13.7985 22.3724 13.9274 22.4457 14.037C22.5189 14.1467 22.6231 14.2321 22.7449 14.2826C22.8667 14.333 23.0007 14.3462 23.1301 14.3205C23.2594 14.2948 23.3782 14.2313 23.4714 14.1381C23.5646 14.0448 23.6281 13.926 23.6539 13.7967C23.6796 13.6674 23.6664 13.5334 23.6159 13.4115C23.5655 13.2897 23.48 13.1856 23.3704 13.1124C23.2607 13.0391 23.1318 13 23 13C22.8232 13 22.6536 13.0702 22.5286 13.1953C22.4036 13.3203 22.3333 13.4899 22.3333 13.6667Z" fill="#45413C" stroke="#45413C" stroke-width="0.5" stroke-linecap="round" stroke-linejoin="round"/>
<path d="M6.66666 11.6802C7.40276 11.031 8.35186 10.6751 9.33333 10.6802C10.1669 10.6053 10.9985 10.8429 11.6667 11.3469" stroke="#45413C" stroke-width="0.5" stroke-linecap="round" stroke-linejoin="round"/>
<path d="M25.6667 11.6667C24.9306 11.0175 23.9815 10.6616 23 10.6667C22.1664 10.5918 21.3348 10.8294 20.6667 11.3334" stroke="#45413C" stroke-width="0.5" stroke-linecap="round" stroke-linejoin="round"/>
<path d="M13.3333 21.3333H20" stroke="#45413C" stroke-width="0.5" stroke-linecap="round" stroke-linejoin="round"/>
</svg>
