<svg width="32" height="32" viewBox="0 0 32 32" fill="none" xmlns="http://www.w3.org/2000/svg">
<path d="M2.66667 14.3333C2.66667 17.8696 4.07143 21.2609 6.57191 23.7614C9.0724 26.2619 12.4638 27.6667 16 27.6667C19.5362 27.6667 22.9276 26.2619 25.4281 23.7614C27.9286 21.2609 29.3333 17.8696 29.3333 14.3333C29.3333 10.7971 27.9286 7.40573 25.4281 4.90524C22.9276 2.40476 19.5362 1 16 1C12.4638 1 9.0724 2.40476 6.57191 4.90524C4.07143 7.40573 2.66667 10.7971 2.66667 14.3333Z" fill="#FFE500"/>
<path d="M16 1C13.3629 1 10.7851 1.78199 8.59241 3.24707C6.39975 4.71216 4.69079 6.79454 3.68162 9.23089C2.67245 11.6672 2.4084 14.3481 2.92287 16.9345C3.43734 19.521 4.70722 21.8967 6.57192 23.7614C8.43662 25.6261 10.8124 26.896 13.3988 27.4105C15.9852 27.9249 18.6661 27.6609 21.1025 26.6517C23.5388 25.6426 25.6212 23.9336 27.0863 21.7409C28.5514 19.5483 29.3333 16.9704 29.3333 14.3333C29.3333 10.7971 27.9286 7.40573 25.4281 4.90524C22.9276 2.40476 19.5362 1 16 1ZM16 25.6667C13.5937 25.6667 11.2414 24.9531 9.24057 23.6162C7.23978 22.2793 5.68034 20.3791 4.75948 18.156C3.83861 15.9328 3.59767 13.4865 4.06712 11.1264C4.53658 8.7663 5.69534 6.59841 7.39688 4.89687C9.09842 3.19533 11.2663 2.03657 13.6264 1.56711C15.9865 1.09766 18.4328 1.3386 20.656 2.25947C22.8792 3.18033 24.7793 4.73976 26.1162 6.74056C27.4531 8.74136 28.1667 11.0937 28.1667 13.5C28.1667 16.7268 26.8848 19.8214 24.6031 22.1031C22.3214 24.3848 19.2268 25.6667 16 25.6667Z" fill="#EBCB00"/>
<path d="M12 3.66669C12 3.9319 12.4214 4.18626 13.1716 4.37379C13.9217 4.56133 14.9391 4.66669 16 4.66669C17.0609 4.66669 18.0783 4.56133 18.8284 4.37379C19.5786 4.18626 20 3.9319 20 3.66669C20 3.40147 19.5786 3.14712 18.8284 2.95958C18.0783 2.77204 17.0609 2.66669 16 2.66669C14.9391 2.66669 13.9217 2.77204 13.1716 2.95958C12.4214 3.14712 12 3.40147 12 3.66669Z" fill="#FFF48C"/>
<path d="M2.66667 14.3333C2.66667 17.8696 4.07143 21.2609 6.57191 23.7614C9.0724 26.2619 12.4638 27.6667 16 27.6667C19.5362 27.6667 22.9276 26.2619 25.4281 23.7614C27.9286 21.2609 29.3333 17.8696 29.3333 14.3333C29.3333 10.7971 27.9286 7.40573 25.4281 4.90524C22.9276 2.40476 19.5362 1 16 1C12.4638 1 9.0724 2.40476 6.57191 4.90524C4.07143 7.40573 2.66667 10.7971 2.66667 14.3333V14.3333Z" stroke="#45413C" stroke-width="0.5" stroke-linecap="round" stroke-linejoin="round"/>
<path opacity="0.15" d="M5.33334 30.3333C5.33334 30.5985 6.45715 30.8529 8.45754 31.0404C10.4579 31.228 13.171 31.3333 16 31.3333C18.829 31.3333 21.5421 31.228 23.5425 31.0404C25.5429 30.8529 26.6667 30.5985 26.6667 30.3333C26.6667 30.0681 25.5429 29.8137 23.5425 29.6262C21.5421 29.4387 18.829 29.3333 16 29.3333C13.171 29.3333 10.4579 29.4387 8.45754 29.6262C6.45715 29.8137 5.33334 30.0681 5.33334 30.3333Z" fill="#45413C"/>
<path d="M23.1667 10.7734C21.5946 10.5151 20.14 9.77964 19 8.66669" stroke="#45413C" stroke-width="0.5" stroke-linecap="round" stroke-linejoin="round"/>
<path d="M8.83334 10.7734C10.4054 10.5151 11.8601 9.77964 13 8.66669" stroke="#45413C" stroke-width="0.5" stroke-linecap="round" stroke-linejoin="round"/>
<path d="M25.6667 17.6667C25.6667 18.22 24.92 18.6667 24 18.6667C23.08 18.6667 22.3333 18.22 22.3333 17.6667C22.3333 17.1134 23.08 16.6667 24 16.6667C24.92 16.6667 25.6667 17.1134 25.6667 17.6667Z" fill="#FFAA54"/>
<path d="M6.33334 17.6667C6.33334 18.22 7.08001 18.6667 8.00001 18.6667C8.92001 18.6667 9.66668 18.22 9.66668 17.6667C9.66668 17.1134 8.92001 16.6667 8.00001 16.6667C7.08001 16.6667 6.33334 17.1134 6.33334 17.6667Z" fill="#FFAA54"/>
<path d="M24.1733 12L22.0333 13.0733C21.9241 13.1293 21.8325 13.2143 21.7685 13.319C21.7045 13.4237 21.6707 13.544 21.6707 13.6667C21.6707 13.7894 21.7045 13.9097 21.7685 14.0144C21.8325 14.1191 21.9241 14.2041 22.0333 14.26L24.1733 15.3333" stroke="#45413C" stroke-width="0.5" stroke-linecap="round" stroke-linejoin="round"/>
<path d="M7.82668 12L10 13.0733C10.1092 13.1293 10.2009 13.2143 10.2648 13.319C10.3288 13.4237 10.3627 13.544 10.3627 13.6667C10.3627 13.7894 10.3288 13.9097 10.2648 14.0144C10.2009 14.1191 10.1092 14.2041 10 14.26L7.82668 15.3333" stroke="#45413C" stroke-width="0.5" stroke-linecap="round" stroke-linejoin="round"/>
<path d="M21.1933 24C21.3097 24.0004 21.4248 23.9755 21.5307 23.9272C21.6365 23.8789 21.7307 23.8082 21.8067 23.72C21.8841 23.629 21.9409 23.5223 21.9732 23.4072C22.0054 23.2921 22.0123 23.1714 21.9933 23.0534C21.7602 21.6302 21.0287 20.3363 19.9297 19.4027C18.8306 18.469 17.4354 17.9564 15.9933 17.9564C14.5512 17.9564 13.1561 18.469 12.057 19.4027C10.9579 20.3363 10.2265 21.6302 9.99334 23.0534C9.97441 23.1714 9.9813 23.2921 10.0135 23.4072C10.0458 23.5223 10.1026 23.629 10.18 23.72C10.256 23.8082 10.3502 23.8789 10.456 23.9272C10.5619 23.9755 10.677 24.0004 10.7933 24C14.203 23.1111 17.7837 23.1111 21.1933 24Z" fill="#FFB0CA" stroke="#45413C" stroke-width="0.5" stroke-linecap="round" stroke-linejoin="round"/>
<path d="M16 18C14.4378 17.9947 12.9335 18.5916 11.8 19.6666H20.2C19.0665 18.5916 17.5623 17.9947 16 18Z" fill="white" stroke="#45413C" stroke-width="0.5" stroke-linecap="round" stroke-linejoin="round"/>
</svg>
